<svg xmlns="http://www.w3.org/2000/svg" width="48" height="48" fill="none" viewBox="0 1 48 48" part="icon blz-icon"><g clip-path="url(#clip0_1163_0)"><g clip-path="url(#clip1_1163_0)"><path fill="#5F090C" fill-rule="evenodd" d="m45.998 26.178-3.562 3.562a2.55 2.55 0 0 0-2.158.722L28.274 42.471a2.56 2.56 0 0 0-.722 2.158l-3.553 3.55-3.562-3.562a2.56 2.56 0 0 0-.713-2.146l-12-11.998a2.55 2.55 0 0 0-2.155-.722L2.007 26.19v-1.72h1.7l1.862-1.86a2.55 2.55 0 0 0 2.155-.72l12-11.993a2.56 2.56 0 0 0 .72-2.156l3.555-3.562 3.562 3.562a2.55 2.55 0 0 0 .722 2.156l11.998 12a2.56 2.56 0 0 0 2.157.72l1.861 1.86H46v1.701z" clip-rule="evenodd"></path><path fill="#CC2229" d="M42.45 28.032 46 24.47l-3.55-3.562a2.56 2.56 0 0 1-2.156-.72l-12.02-12a2.56 2.56 0 0 1-.72-2.157l-3.555-3.562-3.562 3.562a2.55 2.55 0 0 1-.722 2.158L7.72 20.195a2.56 2.56 0 0 1-2.158.72L2 24.47l3.562 3.562a2.56 2.56 0 0 1 2.158.72l12.004 12a2.55 2.55 0 0 1 .722 2.157l3.553 3.562 3.564-3.55a2.56 2.56 0 0 1 .72-2.158l12-12.018a2.56 2.56 0 0 1 2.166-.713"></path><path fill="#000" d="M21.87 37.07c0 .243-2.76 1.857-2.76 1.857h9.778s-2.153-1.614-2.153-1.856l-.011-11.026c0-.14.841-.844 1.654-1.44l.058-.043-.058-.04c-.804-.605-1.64-1.305-1.65-1.431l.025-11.21c0-.243 2.133-1.856 2.133-1.856h-9.774s2.74 1.613 2.74 1.856l.025 11.21c0 .094-1.71 1.476-1.71 1.476s1.715 1.35 1.715 1.478z"></path><path fill="#5F090C" d="M37.83 20.942s-1.179-1.163-1.773-1.741a47 47 0 0 0-2.144-1.95 15.6 15.6 0 0 0-3.33-2.17c-.79-.385-1.62-.682-2.475-.885a20 20 0 0 0-1.832-.335 24 24 0 0 0-2.522-.252c-1.155-.05-2.311-.072-3.466-.085-1.33-.014-2.657 0-3.987 0-2 0-6.444-1.125-6.444-1.125l1.785 2.607 1.829 1.184-.144 1.08v3.825q0 4.688.013 9.374v3.055c0 .192-.01.38-.022.57a.53.53 0 0 1-.25.43c-.205.13-.405.265-.61.393-.771.488-2.648.574-2.648.574l2.108 1.334s13.95-.119 14.32-.119c5.737 0 10.172-5.38 10.172-11.939l-.63-3.564a9.6 9.6 0 0 1 2.774 2.117l1.182-.785zm-7.045 4.653q-.075.877-.238 1.742-.11.561-.282 1.107c-.05.157-.175.4-.243.558a11.2 11.2 0 0 1-1.152 2.025 7.8 7.8 0 0 1-1.471 1.519c-.255.207-.52.398-.792.582a4.3 4.3 0 0 1-1.717.675q-.511.089-1.028.1c-.691 0-1.38.022-2.07.029l-2.316-.012a.2.2 0 0 1-.083-.024l-.063-.059.083-17.674h.97c3.071 0 6.705.524 8.361 1.717 1.242.9 1.454 1.622 1.89 3.6a9 9 0 0 1 .225 1.741q.032 1.19-.074 2.374"></path><path fill="#EAE5CA" d="M39.763 22.24a14.4 14.4 0 0 0-1.53-2.164q-.2-.21-.405-.414a485 485 0 0 0-1.773-1.742 48 48 0 0 0-2.145-1.948 15.5 15.5 0 0 0-3.33-2.17c-.79-.386-1.62-.683-2.475-.886a20 20 0 0 0-1.831-.335q-1.258-.195-2.527-.261c-1.154-.05-2.311-.072-3.465-.086-1.33-.013-2.658 0-3.987 0l-6.004-.022c-.137 0-.274 0-.402.013-.048.075-.066.14 0 .194q.098.081.207.155l2.553 1.77q.213.15.415.31a.53.53 0 0 1 .197.352q.066.489.059.982v16.83a.52.52 0 0 1-.25.43l-2.925 1.856c-.101.065-.225.15-.324.225a.114.114 0 0 0-.018.162.34.34 0 0 0 .24.074c2.748-.02 15.256-.11 15.702-.14 4.53-.31 14.016-5.555 9.486-16.2a23.5 23.5 0 0 1 4.32 3.32c.014 0 .023.022.038.024q.092.015.172-.032c.065-.074.049-.202.002-.297m-9.612 2.39a22 22 0 0 1-.226 1.742q-.11.561-.283 1.107c-.05.157-.173.4-.243.558a11 11 0 0 1-1.15 2.025c-.42.57-.915 1.08-1.471 1.518q-.386.309-.795.583a4.3 4.3 0 0 1-1.716.675q-.51.089-1.029.1c-.688 0-1.379.022-2.067.029l-2.318-.016a.2.2 0 0 1-.083-.025.4.4 0 0 1-.034-.06l.063-17.58a.1.1 0 0 1 .018-.061c.016-.018.016-.04.079-.04.641.022 4.275.168 6.862.856 1.942.516 2.892 1.661 3.07 2.026a6.06 6.06 0 0 1 1.185 2.448q.197.86.225 1.741.025 1.19-.087 2.374"></path></g></g><defs><clipPath id="clip0_1163_0"><path fill="#fff" d="M0 .97h48v48H0z"></path></clipPath><clipPath id="clip1_1163_0"><path fill="#fff" d="M0 .97h48v48H0z"></path></clipPath></defs></svg>