<?xml version="1.0" encoding="UTF-8"?>
<!-- Generator: Blender, SVG Export for Grease Pencil - v1.0 -->
<!DOCTYPE svg PUBLIC "-//W3C//DTD SVG 1.1//EN" "http://www.w3.org/Graphics/SVG/1.1/DTD/svg11.dtd">
<svg version="1.0" x="0px" y="0px" xmlns="http://www.w3.org/2000/svg" width="797px" height="202px" viewBox="0 0 797 202">
	<g id="blender_frame_1">
		<g id="blender_object_GPencil">
			<!--Layer: GP_Layer-->
			<g id="GP_Layer">
				<polygon fill="#000000" stroke="none" fill-opacity="1" points="104.391479,46.345154 104.285767,46.339722 104.212585,46.333435 104.162781,46.323853 104.127258,46.308167 104.096741,46.283630 104.062317,46.247559 104.014587,46.197205 103.944580,46.129944 103.843079,46.043030 103.700989,45.933655 103.509155,45.799255 103.258423,45.637024 103.097229,45.457397 102.932983,45.261597 102.769409,45.052185 102.610596,44.831909 102.460266,44.602844 102.322388,44.367737 102.200989,44.128967 102.099854,43.889038 102.022888,43.650269 101.974121,43.415344 101.957275,43.186646 101.976440,42.966492 102.074707,41.022400 102.309204,39.103271 102.691589,37.224731 103.233459,35.401917 103.946411,33.650085 104.841980,31.984436 105.931946,30.420044 107.227844,28.971924 108.741638,27.655029 110.485107,26.484192 112.470215,25.474548 114.709045,24.640991 115.916504,24.250549 117.132751,23.892944 118.356750,23.568298 119.587585,23.276794 120.824463,23.018433 122.066345,22.793518 123.312256,22.601990 124.561523,22.444275 125.812927,22.320190 127.065796,22.230042 128.319092,22.174133 129.572083,22.152527 131.930603,22.212219 134.298218,22.271423 136.673279,22.329529 139.054077,22.385498 141.439148,22.438721 143.826660,22.488342 146.215149,22.533630 148.602844,22.573669 150.988281,22.607849 153.369568,22.635254 155.745300,22.655029 158.113708,22.666626 161.274231,22.697388 164.423706,22.699646 167.567505,22.672180 170.710876,22.613586 173.859009,22.522888 177.017212,22.398743 180.190674,22.239746 183.384644,22.044922 186.604492,21.812927 189.855286,21.542542 193.142334,21.232483 196.470703,20.881775 197.249084,20.752686 197.734131,20.499817 197.976501,20.139771 198.026611,19.688721 197.934998,19.163391 197.752136,18.580261 197.528564,17.955627 197.314880,17.305969 197.161194,16.647766 197.117920,15.997253 197.235291,15.370728 197.563599,14.784546 197.956909,14.263367 198.372681,13.728149 198.809265,13.189697 199.265259,12.659058 199.739014,12.147156 200.229065,11.664734 200.734009,11.222839 201.252258,10.832214 201.782410,10.503845 202.322998,10.248413 202.872559,10.076782 203.429626,10.000000 204.424927,10.139038 205.329773,10.439148 206.161743,10.873352 206.938293,11.414917 207.676880,12.036865 208.395081,12.712463 209.110107,13.414551 209.839539,14.116150 210.600769,14.790344 211.411072,15.409790 212.287903,15.947388 213.248596,16.375916 213.844482,16.608093 214.452026,16.825256 215.069946,17.029541 215.697144,17.223206 216.332642,17.408386 216.975037,17.587158 217.623352,17.761780 218.276428,17.934387 218.933105,18.107300 219.592346,18.282532 220.252930,18.462280 220.913818,18.648804 221.700134,18.903076 222.503174,19.169250 223.320190,19.449463 224.148315,19.745911 224.984741,20.060425 225.826782,20.395142 226.671387,20.752258 227.515991,21.133789 228.357727,21.541748 229.193848,21.978271 230.021362,22.445435 230.837708,22.945374 231.124023,23.118652 231.404297,23.290955 231.683044,23.461731 231.964539,23.630493 232.253235,23.796570 232.553528,23.959656 232.869812,24.119080 233.206604,24.274353 233.568176,24.424927 233.958984,24.570312 234.383423,24.709961 234.845886,24.843201 235.561646,25.176208 236.180603,25.466064 236.714050,25.719299 237.173096,25.942322 237.569275,26.141418 237.913757,26.323303 238.217957,26.494385 238.493103,26.661194 238.750671,26.830017 239.001953,27.007507 239.258301,27.200073 239.530945,27.414246 240.253845,27.753052 241.002014,28.065063 241.765076,28.356934 242.532593,28.635681 243.294250,28.908325 244.039490,29.181763 244.757996,29.462708 245.439514,29.758301 246.073486,30.075500 246.649536,30.421082 247.157288,30.802063 247.586426,31.225464 248.707581,32.422791 249.725708,33.650635 250.654602,34.908325 251.508179,36.195190 252.300476,37.510315 253.045349,38.853210 253.756775,40.223145 254.448853,41.619263 255.135681,43.040894 255.831116,44.487305 256.549438,45.957764 257.304749,47.451599 258.120850,49.231018 258.571472,51.077881 258.678894,52.957886 258.465271,54.836609 257.953186,56.679443 257.165039,58.451477 256.123413,60.117432 254.851318,61.642334 253.371582,62.990601 251.707642,64.126953 249.883118,65.015564 247.921753,65.621277 244.964783,66.015991 242.065002,66.078186 239.218018,65.840698 236.419250,65.336365 233.664062,64.598206 230.947388,63.659424 228.264221,62.553040 225.609253,61.312256 222.977112,59.969971 220.362305,58.559021 217.759033,57.112305 215.161621,55.662170 214.480103,55.294312 213.407104,54.800476 211.995422,54.203857 210.297668,53.527527 208.366577,52.794800 206.254700,52.028748 204.014404,51.252380 201.697998,50.488708 199.357544,49.760620 197.044983,49.091003 194.812073,48.502625 192.710449,48.018311 190.525696,47.568420 188.382751,47.089722 186.275757,46.587219 184.198792,46.066101 182.145874,45.531250 180.110962,44.987732 178.088318,44.440552 176.071777,43.894653 174.055359,43.354980 172.033081,42.826599 169.998962,42.314514 167.946960,41.823425 166.131287,41.369812 164.310486,40.945557 162.482178,40.552734 160.644287,40.193604 158.794617,39.870056 156.931030,39.584351 155.051270,39.338501 153.153137,39.134644 151.234436,38.974915 149.292969,38.861511 147.326477,38.796387 145.332703,38.781738 144.502319,38.860046 143.554810,39.050598 142.539307,39.338562 141.505249,39.709106 140.501709,40.147339 139.578186,40.638428 138.784058,41.167542 138.168884,41.719910 137.782227,42.280640 137.673706,42.834656 137.893127,43.367188 138.490173,43.863159 141.306885,45.576172 144.173401,47.194397 147.086304,48.726257 150.042114,50.180359 153.037476,51.565186 156.068970,52.889587 159.133362,54.162231 162.227295,55.391968 165.347473,56.587463 168.490662,57.757751 171.653809,58.911682 174.833557,60.058228 177.597839,61.079712 180.360718,62.116394 183.119812,63.173584 185.872803,64.256653 188.617126,65.370911 191.350586,66.521667 194.070740,67.714294 196.775330,68.954285 199.462097,70.246826 202.128662,71.597595 204.772766,73.012024 207.392151,74.495544 209.637695,75.810974 211.879822,77.092407 214.116943,78.351624 216.347534,79.599976 218.570007,80.849060 220.782837,82.110535 222.984741,83.396179 225.174133,84.717590 227.349792,86.086609 229.510315,87.515137 231.654541,89.015015 233.781067,90.598206 236.359741,92.205322 238.360962,92.870605 239.868896,92.718506 240.969177,91.875183 241.748352,90.468018 242.293518,88.624390 242.692017,86.471863 243.031067,84.137207 243.397644,81.746460 243.878479,79.424438 244.560181,77.295044 245.528992,75.481567 247.006958,76.471252 248.299622,76.987427 249.434875,77.096252 250.440979,76.863831 251.346375,76.356995 252.179626,75.642517 252.969666,74.787292 253.745117,73.857788 254.534973,72.920593 255.368042,72.041992 256.273438,71.288025 257.280212,70.724670 258.847290,70.259155 260.349121,70.122559 261.782471,70.276611 263.143860,70.683716 264.429749,71.306091 265.636597,72.106140 266.760437,73.046265 267.797485,74.088684 268.743652,75.195618 269.594971,76.329224 270.347168,77.451355 270.996094,78.523804 272.045837,80.165344 272.989929,81.847595 273.854370,83.559387 274.664917,85.289673 275.447693,87.027283 276.228760,88.761169 277.034119,90.479919 277.889954,92.172119 278.822571,93.826538 279.858276,95.431702 281.023315,96.976013 282.344116,98.447876 285.705566,96.961792 288.840271,95.241333 291.778992,93.319031 294.552368,91.227051 297.191101,88.997559 299.726196,86.662781 302.188599,84.254272 304.609253,81.803589 307.019226,79.342041 309.449463,76.900818 311.931091,74.510498 314.494995,72.201599 315.719177,71.263916 317.041260,70.447998 318.442322,69.758118 319.903564,69.198486 321.406189,68.773376 322.931580,68.487122 324.460938,68.344055 325.975708,68.348572 327.457092,68.505188 328.886719,68.818298 330.245544,69.292603 331.515198,69.932617 333.501465,71.500305 335.023438,73.300903 336.165833,75.297241 337.013550,77.451904 337.651306,79.727295 338.164307,82.085632 338.638000,84.488892 339.158081,86.898621 339.810608,89.276123 340.681824,91.582458 341.858337,93.778198 343.427002,95.823853 344.734314,94.217957 345.873413,92.552612 346.876587,90.842041 347.776245,89.100708 348.604492,87.342834 349.393433,85.582397 350.175293,83.833679 350.982056,82.110535 351.845703,80.426880 352.798035,78.796570 353.870911,77.233276 355.096069,75.750732 355.595154,75.205688 356.115845,74.637146 356.646484,74.047791 357.175232,73.440125 357.690491,72.816650 358.180664,72.179932 358.633972,71.532532 359.038757,70.876892 359.383423,70.215637 359.656311,69.551147 359.845947,68.886108 359.940552,68.222839 359.875183,67.681641 359.621704,67.255005 359.213745,66.920532 358.684448,66.656067 358.067139,66.439392 357.395203,66.248352 356.701782,66.060913 356.020203,65.854980 355.383972,65.608276 354.826233,65.298950 354.380310,64.904907 354.079712,64.404053 353.979248,64.161865 353.901917,63.891602 353.847351,63.601074 353.814819,63.297913 353.803955,62.989746 353.814270,62.684204 353.844971,62.388977 353.895874,62.111633 353.966187,61.859863 354.055542,61.641052 354.163269,61.463257 354.288940,61.333679 354.934509,60.827148 355.531921,60.440491 356.095825,60.158936 356.640259,59.967957 357.179443,59.852844 357.727844,59.799133 358.299377,59.792114 358.908569,59.817444 359.569275,59.860413 360.295898,59.906494 361.102600,59.941162 362.003479,59.949829 362.671082,59.799744 363.273926,59.517639 363.821655,59.130737 364.324097,58.666321 364.790710,58.151611 365.231506,57.613770 365.655945,57.079956 366.073975,56.577271 366.495300,56.132690 366.929688,55.773254 367.386963,55.525818 367.876892,55.417603 369.537292,55.212341 371.201599,55.042603 372.869263,54.908264 374.539673,54.809326 376.211853,54.745911 377.885376,54.717896 379.559448,54.725281 381.233459,54.768250 382.906616,54.846558 384.578308,54.960388 386.247986,55.109619 387.914673,55.294434 389.552673,55.497070 391.189392,55.726868 392.825073,55.983948 394.459656,56.268250 396.093384,56.579956 397.726257,56.918945 399.358459,57.285400 400.989929,57.679321 402.620972,58.100830 404.251587,58.549866 405.881775,59.026611 407.511841,59.531006 410.798645,60.611023 414.014465,61.784058 417.151672,63.062805 420.203003,64.460449 423.161194,65.990051 426.019226,67.664551 428.769470,69.497375 431.404785,71.501953 433.918030,73.691895 436.301758,76.080994 438.548645,78.683105 440.651306,81.512573 440.820068,81.627197 441.068787,81.730164 441.380920,81.814392 441.739563,81.872986 442.127930,81.898743 442.529236,81.884705 442.926697,81.823853 443.303528,81.709167 443.642822,81.533569 443.928040,81.290283 444.142029,80.972046 444.268127,80.572021 444.404907,79.425964 444.389038,78.217163 444.258301,76.974609 444.050171,75.727356 443.802185,74.504150 443.551941,73.333862 443.336792,72.244812 443.194031,71.265625 443.160889,70.424805 443.274597,69.750549 443.572388,69.271423 444.091675,69.015625 446.751160,68.603516 448.986389,68.991760 450.879578,70.057617 452.512451,71.679199 453.966064,73.734924 455.321106,76.102783 456.658203,78.660156 458.058167,81.283508 459.601746,83.848206 461.369751,86.228455 463.442932,88.297729 465.901550,89.928406 468.572205,88.206543 471.234436,86.491516 473.894409,84.788330 476.558228,83.101929 479.232300,81.437317 481.922791,79.799255 484.635803,78.192566 487.377625,76.622192 490.154663,75.092773 492.972961,73.609253 495.838806,72.176392 498.758667,70.798767 499.963379,70.315308 501.198547,69.903687 502.460266,69.564148 503.744629,69.296875 505.047668,69.101990 506.365234,68.979858 507.693604,68.930725 509.028870,68.954712 510.367004,69.052185 511.704163,69.223450 513.036316,69.468689 514.359619,69.788391 515.778015,70.195984 517.433655,70.824036 519.265015,71.630188 521.210327,72.571472 523.207642,73.605408 525.194519,74.688904 527.108826,75.779175 528.887512,76.832947 530.467773,77.806885 531.786316,78.657471 532.779846,79.341187 533.384949,79.814514 533.969543,80.393005 534.558472,80.946472 535.156006,81.458862 535.766479,81.913940 536.394287,82.295593 537.043335,82.587708 537.718262,82.774109 538.422974,82.838684 539.161743,82.765259 539.938843,82.537720 540.758240,82.140259 541.623962,81.556824 545.361328,79.177917 549.174377,76.926697 553.059448,74.809814 557.012390,72.833984 561.029480,71.006165 565.107300,69.332947 569.241943,67.821167 573.430054,66.477661 577.668030,65.309326 581.952820,64.322937 586.280823,63.525574 590.648987,62.924255 593.957458,62.591064 597.269104,62.370178 600.584534,62.263733 603.904358,62.274048 607.229187,62.403442 610.559753,62.654114 613.896667,63.028625 617.240540,63.529236 620.592102,64.158569 623.952209,64.918884 627.321350,65.812927 630.700378,66.843201 634.286926,68.291016 637.186707,70.119263 639.506531,72.268982 641.352966,74.680969 642.832581,77.295776 644.051575,80.053467 645.116882,82.893738 646.135315,85.755676 647.214661,88.577576 648.462708,91.297485 649.987854,93.852844 651.898376,96.180298 652.241760,96.320496 652.599670,96.275330 652.977234,96.075806 653.379822,95.752869 653.812805,95.337402 654.281433,94.860352 654.791321,94.352600 655.347473,93.844971 655.955505,93.368286 656.620911,92.953247 657.349182,92.630615 658.145813,92.431030 658.661316,92.354736 659.069031,92.394226 659.381897,92.530518 659.613342,92.744995 659.776306,93.018677 659.884460,93.332764 659.951111,93.668274 659.988831,94.006531 660.011414,94.328430 660.032043,94.615112 660.063782,94.847778 660.119934,95.007263 660.400574,95.589417 660.650085,96.179810 660.869690,96.778442 661.059875,97.385437 661.221741,98.000732 661.356262,98.624390 661.464172,99.256470 661.546570,99.896912 661.604187,100.545898 661.638123,101.203369 661.649109,101.869385 661.638000,102.543823 661.446472,104.591431 661.174377,106.645569 660.880554,108.678345 660.623718,110.661682 660.463074,112.567261 660.457703,114.366760 660.667297,116.031555 661.151306,117.532898 661.968933,118.842102 663.180237,119.930359 664.844177,120.768799 667.019958,121.328735 674.177429,122.424988 681.327698,123.266052 688.460632,123.845337 695.566223,124.156433 702.633972,124.193054 709.653992,123.949158 716.615662,123.419006 723.508850,122.596924 730.323059,121.477478 737.047913,120.055420 743.673279,118.325928 750.188416,116.284424 750.330261,116.261658 750.792908,116.266724 751.633240,116.409973 752.908508,116.801819 754.675598,117.552734 756.993103,118.773987 759.920471,120.577759 763.518494,123.077637 767.850281,126.389343 772.981506,130.631348 778.980774,135.925842 785.920837,142.399841 786.854797,143.522705 787.436951,144.661560 787.697083,145.801697 787.665466,146.928223 787.372253,148.026367 786.847473,149.081116 786.121765,150.077515 785.225403,151.000488 784.188904,151.835083 783.042664,152.566284 781.817810,153.178833 780.545105,153.657715 779.764465,153.903564 778.959900,154.130249 778.132629,154.339600 777.283752,154.533142 776.414612,154.712708 775.526062,154.879944 774.619690,155.036499 773.696350,155.184143 772.757507,155.324646 771.804016,155.459534 770.837341,155.590698 769.858459,155.719727 767.936218,155.951355 765.981873,156.128967 764.003235,156.249573 762.007019,156.310303 760.000549,156.308044 757.991394,156.239990 755.986755,156.103088 753.993713,155.894409 752.019714,155.611267 750.072083,155.250488 748.158020,154.809265 746.284851,154.284973 736.687927,151.821899 727.188049,149.968140 717.770081,148.632751 708.420959,147.726074 699.128723,147.159424 689.882996,146.844360 680.674500,146.693054 671.495789,146.617615 662.340515,146.530457 653.203552,146.343750 644.081482,145.970032 634.971619,145.322083 633.985291,145.174866 633.150208,144.960999 632.455383,144.684021 631.890198,144.347534 631.443787,143.955078 631.105286,143.510254 630.863708,143.016602 630.708069,142.477783 630.627747,141.897461 630.611755,141.279053 630.649475,140.626160 630.729675,139.942505 630.782776,138.991333 630.887756,138.011780 631.020813,137.010010 631.158386,135.992249 631.277283,134.964539 631.353577,133.933167 631.363953,132.904236 631.285217,131.883728 631.094055,130.877869 630.766785,129.892639 630.280334,128.934082 629.611511,128.008179 626.702454,129.079529 623.778015,130.147522 620.836243,131.208923 617.875061,132.260498 614.892395,133.298950 611.886536,134.320923 608.855286,135.323303 605.796936,136.302673 602.709412,137.255798 599.590759,138.179321 596.439514,139.069824 593.253235,139.924072 591.340149,140.402832 589.396667,140.859009 587.426208,141.291199 585.432556,141.697815 583.419373,142.077454 581.390198,142.428589 579.348694,142.749817 577.298462,143.039551 575.243286,143.296387 573.186646,143.518799 571.132507,143.705383 569.084473,143.854614 563.368408,144.273132 557.483643,144.625183 551.516296,144.817810 545.553101,144.757996 539.682251,144.353210 533.992310,143.510986 528.572632,142.139709 523.512573,140.148804 518.902039,137.449219 514.829651,133.953735 511.383789,129.577820 508.651306,124.239868 508.059387,122.378845 507.825012,120.577148 507.911987,118.832886 508.284241,117.143860 508.905823,115.508179 509.740906,113.923645 510.753906,112.388428 511.909119,110.900574 513.171143,109.458069 514.504700,108.058960 515.874329,106.701355 517.244934,105.383301 517.438049,105.124573 517.618286,104.796570 517.772888,104.415283 517.889282,103.996887 517.954956,103.557373 517.957458,103.112549 517.884094,102.678589 517.722412,102.271179 517.459900,101.906555 517.083984,101.600342 516.582153,101.368652 515.941833,101.227112 511.744995,100.677063 507.598267,100.463745 503.526611,100.581665 499.555664,101.026306 495.710876,101.792725 492.017761,102.876709 488.502502,104.274109 485.190735,105.981079 482.109009,107.993774 479.283936,110.308899 476.742188,112.923218 474.511292,115.833557 473.063538,118.208862 471.897217,120.665100 470.972473,123.195251 470.249084,125.791992 469.687195,128.447876 469.246033,131.155701 468.885376,133.908020 468.564453,136.697266 468.242432,139.515930 467.878235,142.356384 467.430603,145.210754 466.858215,148.071411 466.482056,148.771973 465.926514,149.365051 465.219971,149.851929 464.391296,150.233948 463.468567,150.512573 462.480591,150.689026 461.456055,150.764893 460.423462,150.741455 459.411499,150.620300 458.448547,150.402832 457.563477,150.090637 456.784790,149.685242 454.811768,148.386658 452.924988,147.061218 451.119812,145.705322 449.391479,144.315735 447.735718,142.888855 446.147949,141.421387 444.623596,139.910034 443.158203,138.351440 441.747437,136.742249 440.386719,135.079224 439.071594,133.359009 437.797668,131.578369 436.945618,129.926270 436.461792,128.230347 436.263306,126.499695 436.267517,124.742981 436.392151,122.969238 436.554993,121.187195 436.674316,119.405701 436.668274,117.633362 436.455566,115.878906 435.955078,114.150879 435.085876,112.457886 433.767212,110.808594 430.465759,112.964294 426.980042,114.654480 423.340820,115.964294 419.579163,116.979370 415.725342,117.785889 411.809143,118.470581 407.859802,119.120544 403.906555,119.822754 399.977173,120.664490 396.099731,121.733459 392.301208,123.117615 388.608582,124.905518 388.465149,125.072083 388.316528,125.341919 388.174561,125.693054 388.051270,126.103699 387.958801,126.551758 387.909180,127.015137 387.914490,127.471985 387.986694,127.900146 388.138184,128.277588 388.380737,128.582092 388.726501,128.791687 389.187683,128.884094 390.101135,129.039978 390.893250,129.286133 391.567078,129.612122 392.125732,130.007629 392.572693,130.462402 392.910950,130.965942 393.143677,131.507935 393.274048,132.078064 393.305115,132.665771 393.240173,133.260803 393.082336,133.852478 392.834534,134.430664 392.363708,135.218567 391.826172,135.877319 391.225037,136.417603 390.563599,136.849792 389.844971,137.184814 389.072327,137.433105 388.248779,137.605591 387.377563,137.712830 386.461792,137.765686 385.504639,137.774780 384.509338,137.751038 383.478882,137.705322 383.334961,137.751526 383.171204,137.787903 382.989624,137.815247 382.791870,137.834473 382.579712,137.846497 382.355103,137.852234 382.119873,137.852478 381.875793,137.848328 381.624634,137.840576 381.368164,137.830078 381.108276,137.817749 380.846741,137.804504 380.527222,137.825317 380.223267,137.912781 379.932800,138.054626 379.653748,138.238586 379.383911,138.452454 379.121399,138.683838 378.864075,138.920532 378.609924,139.150146 378.356750,139.360352 378.102722,139.538940 377.845703,139.673462 377.583618,139.751526 376.472717,139.831970 375.385925,139.840454 374.321411,139.781738 373.276978,139.660583 372.250732,139.481689 371.240601,139.250000 370.244385,138.970154 369.260315,138.647156 368.286133,138.285583 367.319824,137.890381 366.359192,137.466248 365.402222,137.017883 365.238708,137.037720 365.019470,137.106750 364.757385,137.218994 364.465881,137.368896 364.157776,137.550537 363.846313,137.758057 363.544434,137.985840 363.265381,138.227844 363.022278,138.478394 362.828064,138.731689 362.696106,138.981873 362.639404,139.223145 362.491089,142.511230 362.550659,145.825745 362.765198,149.160767 363.081787,152.510376 363.447083,155.868408 363.807373,159.229004 364.108643,162.585876 364.296631,165.932800 364.316895,169.263458 364.114502,172.571564 363.634277,175.850616 362.820923,179.094025 362.507935,179.934296 362.073364,180.884979 361.525635,181.921509 360.873596,183.019257 360.126160,184.153412 359.291870,185.299316 358.379822,186.432037 357.398560,187.526550 356.357422,188.557892 355.265076,189.500824 354.130798,190.330231 352.963562,191.020844 352.249451,191.436035 351.511536,191.769379 350.755188,192.011658 349.985779,192.153778 349.208618,192.186493 348.429199,192.100677 347.652893,191.887329 346.884949,191.537415 346.130981,191.041870 345.396240,190.391724 344.686279,189.578217 344.006470,188.592590 343.810608,188.021729 343.793457,187.441956 343.920349,186.853058 344.156860,186.254944 344.468323,185.647552 344.820435,185.030701 345.178589,184.404297 345.508545,183.768188 345.775879,183.122375 345.946228,182.466614 345.985291,181.800873 345.858887,181.125000 344.644653,176.636993 343.579956,172.179688 342.643921,167.748383 341.815979,163.338715 341.075439,158.946045 340.402100,154.565979 339.775696,150.194336 339.176147,145.826599 338.583618,141.458801 337.978271,137.086731 337.340576,132.706177 336.651001,128.313171 336.230652,126.848755 335.445557,125.485901 334.364014,124.201355 333.054382,122.971619 331.584595,121.773438 330.022644,120.583801 328.436462,119.379700 326.893860,118.138123 325.462463,116.836182 324.209900,115.451172 323.203674,113.960449 322.510925,112.341553 322.137634,111.267883 321.869202,110.163635 321.676819,109.038635 321.531494,107.902649 321.404663,106.765503 321.267456,105.636841 321.091248,104.526428 320.847534,103.443787 320.507568,102.398682 320.042969,101.400574 319.425171,100.459106 318.625793,99.583740 318.355835,99.413513 318.040649,99.272034 317.690857,99.162048 317.316956,99.086487 316.929260,99.048218 316.538391,99.050171 316.154724,99.095215 315.788696,99.186157 315.450745,99.325867 315.151367,99.517212 314.901123,99.763306 314.710449,100.066895 313.325562,102.356384 312.100159,104.698608 310.986755,107.074829 309.937744,109.466187 308.905396,111.853638 307.841858,114.218140 306.699097,116.540283 305.428894,118.800476 303.982971,120.979248 302.312927,123.056763 300.370361,125.013245 298.106689,126.828674 297.124573,127.617554 296.035828,128.336792 294.858154,128.990601 293.609314,129.582825 292.307129,130.117737 290.969543,130.599182 289.614197,131.031494 288.259094,131.418640 286.921875,131.764709 285.620483,132.073975 284.372864,132.350403 283.196716,132.598267 282.340332,132.673279 281.016785,132.713745 279.302185,132.703369 277.272705,132.625610 275.004822,132.464233 272.574829,132.202637 270.059204,131.824829 267.534546,131.314270 265.077271,130.654907 262.763977,129.830688 260.670959,128.825439 258.874390,127.623474 257.670471,126.587280 256.573853,125.483093 255.561279,124.332581 254.609741,123.157288 253.695801,121.978455 252.796509,120.817688 251.888672,119.696106 250.949036,118.634827 249.954529,117.655151 248.882141,116.777954 247.708496,116.024414 246.410522,115.415466 245.265259,115.180725 244.195862,115.258240 243.188416,115.600037 242.229126,116.158325 241.304321,116.885437 240.400269,117.733704 239.503540,118.655212 238.600586,119.602051 237.677917,120.526123 236.722229,121.379150 235.720093,122.112732 234.658325,122.678589 231.920471,123.641785 229.168579,124.387024 226.405945,124.938416 223.635620,125.319946 220.860718,125.555969 218.084106,125.670654 215.308655,125.688354 212.537048,125.633545 209.771851,125.530579 207.015564,125.403870 204.270569,125.277649 201.539124,125.176453 194.345459,124.922913 187.170959,124.561768 180.014343,124.120605 172.874268,123.626892 165.748962,123.108032 158.636414,122.591309 151.534119,122.104187 144.439453,121.673645 137.349304,121.327148 130.260315,121.091736 123.168823,120.994568 116.070679,121.063110 115.440308,121.113586 113.897888,121.265137 111.578918,121.498108 108.618958,121.792786 105.153442,122.129700 101.318054,122.488953 97.248474,122.851196 93.080872,123.196472 88.951172,123.505188 84.995728,123.757690 81.351074,123.934082 78.153687,124.014832 75.532593,124.088623 72.891235,124.199036 70.244751,124.307251 67.608643,124.374451 64.998199,124.362061 62.429260,124.231384 59.917511,123.943604 57.479095,123.460205 55.129913,122.742798 52.886261,121.753235 50.764191,120.453430 48.779938,118.806152 48.038513,118.133545 47.452698,117.581787 46.999115,117.136719 46.654175,116.784058 46.394592,116.509766 46.196899,116.299622 46.037903,116.139771 45.894226,116.015991 45.742584,115.914307 45.559753,115.820679 45.322388,115.721008 45.007172,115.601379 44.728119,115.399719 44.462280,115.177368 44.206512,114.941406 43.957520,114.698730 43.712219,114.456482 43.467224,114.221680 43.219513,114.001221 42.965790,113.802246 42.702820,113.631592 42.427399,113.496460 42.136383,113.403748 41.826569,113.360352 40.613617,113.191345 39.368469,113.031067 38.105377,112.871643 36.838440,112.704834 35.581909,112.522583 34.350006,112.316772 33.156952,112.079346 32.017059,111.802307 30.944489,111.477478 29.953491,111.096863 29.058380,110.652466 28.273285,110.136292 26.860718,109.138977 25.575287,108.035645 24.388000,106.845886 23.269836,105.589111 22.191589,104.284668 21.124298,102.952087 20.039154,101.610535 18.907043,100.279114 17.699066,98.976929 16.386322,97.723083 14.939972,96.536377 13.331116,95.435791 12.417267,94.653870 11.682983,93.691650 11.109589,92.595276 10.678406,91.410278 10.370667,90.182495 10.167664,88.957336 10.050720,87.780151 10.001007,86.696045 10.000000,85.749939 10.029083,84.986694 10.069733,84.451172 10.103363,84.188232 10.189789,83.512329 10.285828,82.828857 10.388672,82.138367 10.495483,81.441467 10.603516,80.738831 10.709991,80.031189 10.811981,79.319031 10.906891,78.603088 10.991791,77.883972 11.064056,77.162476 11.120728,76.438965 11.159119,75.714417 11.277191,75.222961 11.443756,74.653503 11.662781,74.037170 11.938110,73.405457 12.273468,72.789307 12.672791,72.219910 13.139771,71.728333 13.678528,71.345581 14.292938,71.102722 14.986847,71.030701 15.764587,71.160645 16.630127,71.523743 17.939697,72.308594 19.145935,73.174683 20.261902,74.097290 21.300812,75.051636 22.275818,76.012756 23.199982,76.955933 24.086304,77.855896 24.947876,78.687561 25.797821,79.425842 26.649109,80.045532 27.514679,80.521362 28.407593,80.828064 32.390137,81.573486 36.370728,82.291138 40.349152,82.980896 44.325287,83.642822 48.299042,84.276855 52.270233,84.882874 56.238586,85.460938 60.204132,86.010925 64.166687,86.532898 68.126038,87.026733 72.081970,87.492554 76.034424,87.930115 80.732666,88.436951 85.427063,88.924988 90.118347,89.394226 94.807251,89.844727 99.494690,90.276550 104.181274,90.689575 108.867798,91.084045 113.555054,91.459717 118.243896,91.816833 122.934875,92.155396 127.628906,92.475281 132.326843,92.776611 136.063354,93.018433 139.782410,93.257202 143.487061,93.490723 147.180359,93.716736 150.865234,93.933167 154.544800,94.137695 158.221863,94.328186 161.899536,94.502380 165.580688,94.658081 169.268372,94.793152 172.965332,94.905334 176.674683,94.992432 177.235840,95.010193 177.880066,95.008484 178.581238,94.981140 179.313660,94.922302 180.051147,94.825928 180.767883,94.685974 181.437866,94.496582 182.035156,94.251648 182.533813,93.945251 182.907959,93.571350 183.131714,93.124146 183.179260,92.597534 183.154541,92.351746 183.141113,92.076111 183.134460,91.777466 183.130005,91.462646 183.123291,91.138489 183.109741,90.811768 183.084900,90.489258 183.044250,90.177979 182.983276,89.884583 182.897461,89.615845 182.782288,89.378479 182.633301,89.179443 179.613953,86.778564 176.535156,84.490295 173.400818,82.303223 170.214905,80.206116 166.981384,78.187927 163.704407,76.237366 160.387939,74.343689 157.036194,72.495972 153.653259,70.683289 150.243408,68.895020 146.810791,67.120422 143.359802,65.348999 142.200317,64.759216 140.849304,64.096680 139.333130,63.372742 137.678589,62.598938 135.911987,61.786438 134.059998,60.946655 132.148987,60.090820 130.205200,59.230225 128.254883,58.376038 126.324280,57.539612 124.439392,56.731873 122.626343,55.964111 122.334900,55.789612 122.034485,55.623108 121.727661,55.463928 121.417297,55.311462 121.105957,55.164978 120.796448,55.024109 120.491333,54.888000 120.193420,54.756104 119.905334,54.627869 119.629639,54.502686 119.369324,54.379822 119.126831,54.258728 119.101746,54.243225 118.997498,54.177734 118.771973,54.042053 118.383118,53.815979 117.789001,53.479309 116.947754,53.011841 115.817627,52.393494 114.357178,51.604309 112.525024,50.624512 110.280334,49.434265 107.582520,48.014282 104.550903,46.428589" />
				<polygon fill="#000000" stroke="none" fill-opacity="1" points="591.351746,83.786804 590.450745,84.086914 589.530945,84.402344 588.594788,84.731018 587.645081,85.070740 586.684509,85.419189 585.715759,85.774414 584.741394,86.134094 583.764099,86.496094 582.786682,86.858154 581.811584,87.218140 580.841736,87.573853 579.879700,87.923157 576.806213,89.152222 573.841370,90.462097 570.986816,91.861694 568.244812,93.360168 565.616821,94.966553 563.104675,96.689941 560.710571,98.539673 558.435913,100.525024 556.282715,102.655457 554.252808,104.940613 552.348145,107.390076 550.570740,110.013611 550.265625,110.404236 550.104065,110.807251 550.067261,111.217957 550.136353,111.631409 550.291870,112.042664 550.515137,112.446899 550.786926,112.839050 551.088196,113.214355 551.399597,113.567749 551.702332,113.894409 551.977051,114.189270 552.204651,114.447388 554.983521,116.491089 557.879944,118.031982 560.874268,119.130371 563.947449,119.847351 567.080627,120.244324 570.255066,120.383362 573.452148,120.326721 576.653992,120.136597 579.842712,119.875427 583.001038,119.605347 586.111633,119.388916 589.157654,119.288208 589.472595,119.251282 589.769836,119.222290 590.052795,119.200562 590.325134,119.185425 590.590393,119.176270 590.852234,119.172546 591.114197,119.173584 591.379822,119.178833 591.653015,119.187561 591.937073,119.199219 592.235657,119.213257 592.552185,119.229065 596.300354,119.166809 600.074524,119.050171 603.847229,118.850464 607.590759,118.539185 611.276672,118.087952 614.877014,117.468445 618.363464,116.652283 621.707336,115.611511 624.880432,114.318237 627.854309,112.744873 630.600525,110.864136 633.090515,108.649231 634.145325,107.056396 634.635803,105.252991 634.620667,103.285400 634.158630,101.199890 633.308044,99.042297 632.127136,96.858215 630.674133,94.692871 629.006653,92.591187 627.182190,90.597778 625.257507,88.756897 623.289490,87.112671 621.334412,85.708984 618.923523,84.291565 616.481018,83.170593 614.011414,82.325195 611.519348,81.734863 609.009460,81.379272 606.486633,81.238342 603.955505,81.292114 601.421204,81.520630 598.888489,81.904114 596.362488,82.422913 593.848450,83.057007 591.476624,83.750366" />
				<polygon fill="#000000" stroke="none" fill-opacity="1" points="386.602722,79.538879 385.844666,79.343872 385.083679,79.169678 384.317810,79.018555 383.545288,78.892700 382.764160,78.794373 381.972412,78.725708 381.168335,78.688904 380.349854,78.686279 379.515076,78.719971 378.662170,78.792236 377.789062,78.905212 376.893921,79.061279 376.341370,79.186157 375.844788,79.387268 375.401367,79.654602 375.007935,79.977783 374.661560,80.346802 374.359314,80.751404 374.098206,81.181458 373.875488,81.626648 373.687927,82.076904 373.532898,82.521973 373.407288,82.951538 373.308228,83.355347 372.462158,86.534180 371.487000,89.661316 370.422791,92.750305 369.309387,95.814331 368.187134,98.867188 367.096558,101.922424 366.078125,104.994080 365.172607,108.096130 364.421082,111.242859 363.864746,114.448425 363.545044,117.727600 363.503601,121.094849 363.516113,121.320496 363.580017,121.536194 363.691956,121.738525 363.848450,121.924133 364.046143,122.089478 364.281555,122.231140 364.551453,122.345703 364.852051,122.429688 365.180237,122.479614 365.532593,122.492126 365.905396,122.463684 366.295471,122.390930 367.478516,121.804565 368.512085,121.095337 369.432983,120.294250 370.278320,119.432190 371.085266,118.539978 371.890686,117.648315 372.731628,116.787903 373.645203,115.989258 374.668457,115.282837 375.838257,114.699097 377.191895,114.268433 378.766541,114.021179 379.176880,113.931030 379.617920,113.745667 380.081177,113.483093 380.558533,113.161255 381.041565,112.798279 381.522095,112.411926 381.992004,112.020325 382.442810,111.641296 382.866699,111.292847 383.255249,110.992737 383.600403,110.758911 383.893921,110.609131 384.021545,110.558594 384.139221,110.508301 384.247681,110.458801 384.347778,110.411377 384.440491,110.366638 384.526611,110.325500 384.607056,110.288757 384.682617,110.257446 384.754150,110.232300 384.822571,110.214172 384.888855,110.203979 384.953735,110.202515 386.864014,109.557678 388.755371,108.911316 390.621094,108.252747 392.454407,107.571350 394.248840,106.856689 395.997620,106.098022 397.694031,105.285034 399.331116,104.407104 400.902405,103.453796 402.401123,102.414673 403.820251,101.279480 405.153320,100.038025 405.852783,99.164917 406.328552,98.282227 406.594421,97.391541 406.663879,96.494080 406.550537,95.591492 406.267883,94.685120 405.829712,93.776367 405.249268,92.866760 404.540222,91.957581 403.715942,91.050354 402.790100,90.146484 401.775940,89.247314 400.654907,88.242676 399.511963,87.253174 398.345947,86.285034 397.155396,85.344360 395.939209,84.437256 394.696289,83.569885 393.425171,82.748169 392.124695,81.978394 390.793518,81.266541 389.430298,80.618591 388.033875,80.040710 386.674316,79.563965" />
			</g>
		</g>
	</g>
</svg>
